<mxfile host="app.diagrams.net" modified="2024-01-30T03:11:43.550Z" agent="Mozilla/5.0 (Windows NT 10.0; Win64; x64) AppleWebKit/537.36 (KHTML, like Gecko) Chrome/121.0.0.0 Safari/537.36 Edg/121.0.0.0" version="23.0.2" etag="RUrRev9j_EaT33i84CWC" type="github">
  <diagram name="第 1 页" id="2HxO7je2tRMQ0RBZFBat">
    <mxGraphModel>
      <root>
        <mxCell id="0" />
        <mxCell id="1" parent="0" />
      </root>
    </mxGraphModel>
  </diagram>
</mxfile>
